<svg xmlns="http://www.w3.org/2000/svg" viewBox="0 0 512.003 512.003" role="img" aria-label="Lotus Docs">
  <path fill="white" d="M511.955 204.025c-.427-13.474-11.307-24.32-24.789-24.781l-3.55-.043c-8.277 0-31.258.802-59.674 6.332-5.086-38.4-15.386-65.664-16.239-67.84-2.526-6.511-7.612-11.699-14.063-14.37-3.14-1.297-6.468-1.946-9.796-1.946-3.516 0-7.023.725-10.308 2.167-1.877.828-22.554 10.146-48.35 28.305-22.605-43.008-48.759-70.733-50.679-72.738-4.838-5.052-11.52-7.902-18.5-7.902s-13.662 2.85-18.492 7.893c-1.92 2.005-28.109 29.773-50.722 72.823-25.737-18.108-46.438-27.563-48.307-28.39-3.285-1.442-6.793-2.167-10.308-2.167-3.328 0-6.656.648-9.796 1.946-6.451 2.671-11.529 7.868-14.063 14.37-.845 2.176-11.145 29.431-16.23 67.84-28.433-5.538-51.405-6.323-59.682-6.323l-3.567.043C7.366 179.726-3.523 190.572-3.949 204.046c-.154 4.796-2.876 118.349 67.746 188.979 64.521 64.521 165.769 67.789 185.412 67.789l2.628-.034c.051 0 .102.034.154.034s.102-.034.154-.034l2.628.034c19.644 0 120.892-3.268 185.412-67.789 74.645-70.643 71.923-184.196 71.77-189zM383.844 126.969s10.257 26.863 14.942 64.563c-14.831 4.156-30.242 9.737-45.542 17.203-3.968-19.055-9.916-36.915-16.922-53.248 26.146-18.944 47.522-28.518 47.522-28.518zM128.168 126.969s21.376 9.523 47.539 28.467c-7.023 16.384-12.996 34.313-16.964 53.436-15.3-7.467-30.686-13.133-45.525-17.297 4.684-37.717 14.95-64.606 14.95-64.606zM85.911 374.905C22.303 311.298 25.64 204.836 25.64 204.836s.964-.026 2.756-.026c13.414 0 73.199 2.133 126.182 30.677-.614 6.733-.973 13.568-.973 20.514 0 78.805 42.769 145.374 67.268 177.075-36.701-4.36-94.471-17.68-134.962-58.171zm170.658 59.691c-.495-.162-.981-.316-1.613-.546-9.011-9.822-75.75-85.76-75.75-178.048 0-98.97 76.8-179.2 76.8-179.2s76.8 80.23 76.8 179.2c0 94.967-70.52 172.467-76.237 178.594zm169.54-59.691c-40.491 40.491-98.261 53.811-134.963 58.172 24.491-31.701 67.26-98.27 67.26-177.075 0-6.989-.358-13.867-.99-20.642 52.983-28.518 112.794-30.558 126.199-30.558 1.792 0 2.756.026 2.756.026s3.337 106.47-60.262 170.077z"/>
</svg>
